<svg width="17" height="20" viewBox="0 0 17 20" fill="none" xmlns="http://www.w3.org/2000/svg">
<path fill-rule="evenodd" clip-rule="evenodd" d="M15.9071 6.293C15.9893 6.37825 16.0557 6.47747 16.1031 6.586C16.1155 6.61255 16.1239 6.63989 16.1327 6.66801C16.1338 6.67166 16.1349 6.67532 16.1361 6.679C16.165 6.76255 16.1822 6.84972 16.1871 6.938C16.188 6.94813 16.1908 6.95762 16.1936 6.96697C16.1969 6.97792 16.2001 6.98867 16.2001 7V18C16.2001 19.103 15.3031 20 14.2001 20H2.20007C1.09707 20 0.200073 19.103 0.200073 18V2C0.200073 0.897 1.09707 0 2.20007 0H9.20007C9.21156 0 9.22246 0.0032931 9.2334 0.00660326C9.24246 0.00934294 9.25156 0.0120943 9.26107 0.013C9.34929 0.0183742 9.4364 0.0355262 9.52007 0.0639999C9.53004 0.0674272 9.54001 0.0705632 9.54992 0.0736802C9.57182 0.0805675 9.59342 0.0873619 9.61407 0.0969999C9.72261 0.144411 9.82182 0.210782 9.90707 0.293L15.9071 6.293ZM10.2001 6H12.7861L10.2001 3.414V6ZM2.20007 2V18H14.2021L14.2001 8H9.20007C8.93486 8 8.6805 7.89464 8.49297 7.70711C8.30543 7.51957 8.20007 7.26522 8.20007 7V2H2.20007ZM12.2001 12V10H4.20007V12H12.2001ZM12.2001 16V14H4.20007V16H12.2001ZM6.20007 6H4.20007V8H6.20007V6Z" fill="#667C85"/>
</svg>
