<svg width="21" height="20" viewBox="0 0 21 20" fill="none" xmlns="http://www.w3.org/2000/svg">
<path d="M1.16002 18.2002C1.43438 18.4905 1.76911 18.7171 2.1406 18.864C2.51209 19.0109 2.91129 19.0744 3.31002 19.0502C4.47914 18.989 5.62454 18.6967 6.68002 18.1902C8.26181 18.899 10.0146 19.136 11.7279 18.8726C13.4411 18.6093 15.0418 17.8568 16.3377 16.7056C17.6336 15.5544 18.5695 14.0535 19.0329 12.3833C19.4963 10.713 19.4675 8.94447 18.95 7.29017C20.26 5.06017 20.7 3.03017 19.62 1.81017C19.3061 1.44605 18.9076 1.16449 18.4595 0.990146C18.0115 0.815805 17.5275 0.754007 17.05 0.810165C16.1036 0.95453 15.2186 1.36756 14.5 2.00017C12.8869 1.18057 11.0642 0.866223 9.26978 1.09813C7.47533 1.33003 5.79244 2.09743 4.44069 3.30018C3.08894 4.50293 2.13111 6.0852 1.69216 7.84052C1.25321 9.59584 1.35352 11.4427 1.98002 13.1402C0.920023 14.3502 -0.0699769 16.8202 1.16002 18.2002ZM2.66002 16.8802C2.44002 16.6302 2.66002 15.8102 3.03002 15.1202C3.47755 15.7643 4.00511 16.349 4.60002 16.8602C3.57002 17.1602 2.89002 17.1402 2.66002 16.8802ZM17.17 11.7102C16.7161 13.5059 15.569 15.0485 13.98 16.0002C12.8963 16.6446 11.6609 16.9897 10.4 17.0002C9.98346 16.997 9.56818 16.9535 9.16002 16.8702C10.7289 15.9081 12.2082 14.807 13.58 13.5802C14.9612 12.3605 16.2328 11.0221 17.38 9.58016C17.4216 10.2968 17.3507 11.0155 17.17 11.7102ZM17.26 2.82017C17.4203 2.79377 17.5847 2.80938 17.7372 2.86546C17.8897 2.92155 18.025 3.01619 18.13 3.14017C18.36 3.40017 18.29 4.08017 17.87 5.07017C17.419 4.38089 16.8775 3.7553 16.26 3.21017C16.5609 3.00872 16.9022 2.87561 17.26 2.82017ZM3.62002 8.31017C3.83931 7.41609 4.23429 6.57458 4.78195 5.83463C5.32962 5.09469 6.01902 4.47109 6.81002 4.00017C7.89434 3.34856 9.13498 3.00298 10.4 3.00017C11.6115 2.99181 12.8037 3.30255 13.857 3.90114C14.9102 4.49973 15.7873 5.36508 16.4 6.41017C16.5324 6.62147 16.6494 6.84204 16.75 7.07017C15.4639 8.91456 13.956 10.5938 12.26 12.0702C10.5931 13.6032 8.74232 14.9233 6.75002 16.0002C5.48387 15.2223 4.49808 14.0618 3.93537 12.6865C3.37266 11.3111 3.26221 9.79243 3.62002 8.35017V8.31017Z" fill="#2AC0D4"/>
</svg>
