<svg width="60" height="31" viewBox="0 0 60 31" fill="none" xmlns="http://www.w3.org/2000/svg">
<rect x="0.600006" width="58.8" height="31" rx="12" fill="#2AC0D5"/>
<path d="M28 6.5H22C21.7348 6.5 21.4804 6.60536 21.2929 6.79289C21.1054 6.98043 21 7.23478 21 7.5V13.5C21 13.7652 21.1054 14.0196 21.2929 14.2071C21.4804 14.3946 21.7348 14.5 22 14.5H28C28.2652 14.5 28.5196 14.3946 28.7071 14.2071C28.8946 14.0196 29 13.7652 29 13.5V7.5C29 7.23478 28.8946 6.98043 28.7071 6.79289C28.5196 6.60536 28.2652 6.5 28 6.5ZM27 12.5H23V8.5H27V12.5ZM38 6.5H32C31.7348 6.5 31.4804 6.60536 31.2929 6.79289C31.1054 6.98043 31 7.23478 31 7.5V13.5C31 13.7652 31.1054 14.0196 31.2929 14.2071C31.4804 14.3946 31.7348 14.5 32 14.5H38C38.2652 14.5 38.5196 14.3946 38.7071 14.2071C38.8946 14.0196 39 13.7652 39 13.5V7.5C39 7.23478 38.8946 6.98043 38.7071 6.79289C38.5196 6.60536 38.2652 6.5 38 6.5ZM37 12.5H33V8.5H37V12.5ZM28 16.5H22C21.7348 16.5 21.4804 16.6054 21.2929 16.7929C21.1054 16.9804 21 17.2348 21 17.5V23.5C21 23.7652 21.1054 24.0196 21.2929 24.2071C21.4804 24.3946 21.7348 24.5 22 24.5H28C28.2652 24.5 28.5196 24.3946 28.7071 24.2071C28.8946 24.0196 29 23.7652 29 23.5V17.5C29 17.2348 28.8946 16.9804 28.7071 16.7929C28.5196 16.6054 28.2652 16.5 28 16.5ZM27 22.5H23V18.5H27V22.5ZM35 16.5C32.794 16.5 31 18.294 31 20.5C31 22.706 32.794 24.5 35 24.5C37.206 24.5 39 22.706 39 20.5C39 18.294 37.206 16.5 35 16.5ZM35 22.5C33.897 22.5 33 21.603 33 20.5C33 19.397 33.897 18.5 35 18.5C36.103 18.5 37 19.397 37 20.5C37 21.603 36.103 22.5 35 22.5Z" fill="white"/>
</svg>
