<svg width="21" height="20" viewBox="0 0 21 20" fill="none" xmlns="http://www.w3.org/2000/svg">
<path fill-rule="evenodd" clip-rule="evenodd" d="M3.56616 2.96618C5.43427 1.09807 7.95828 0.0336892 10.6 0C13.2417 0.0336892 15.7657 1.09807 17.6338 2.96618C19.5019 4.8343 20.5663 7.35831 20.6 10C20.5876 11.5389 20.2203 13.0542 19.5265 14.4279C18.8327 15.8016 17.8312 16.9967 16.6 17.92V18H16.5C14.8068 19.2975 12.7331 20.0006 10.6 20.0006C8.46683 20.0006 6.39316 19.2975 4.69998 18H4.59998V17.92C3.36877 16.9967 2.36728 15.8016 1.67349 14.4279C0.979696 13.0542 0.612324 11.5389 0.599976 10C0.633665 7.35831 1.69805 4.8343 3.56616 2.96618ZM7.71906 15.2336C7.18613 15.6629 6.81596 16.2614 6.66998 16.93C7.86111 17.6308 9.21797 18.0004 10.6 18.0004C11.982 18.0004 13.3388 17.6308 14.53 16.93C14.384 16.2614 14.0138 15.6629 13.4809 15.2336C12.948 14.8044 12.2843 14.5702 11.6 14.57H9.59998C8.91567 14.5702 8.25199 14.8044 7.71906 15.2336ZM14.3689 13.4084C15.1891 13.9546 15.8296 14.7309 16.21 15.64C16.9593 14.903 17.5561 14.0255 17.9662 13.0578C18.3762 12.0901 18.5916 11.051 18.6 10C18.574 7.88633 17.7229 5.86653 16.2281 4.37183C14.7334 2.87712 12.7136 2.02594 10.6 2C8.4863 2.02594 6.46651 2.87712 4.9718 4.37183C3.4771 5.86653 2.62591 7.88633 2.59998 10C2.60833 11.051 2.8237 12.0901 3.23379 13.0578C3.64388 14.0255 4.24064 14.903 4.98998 15.64C5.37035 14.7309 6.01086 13.9546 6.83105 13.4084C7.65125 12.8622 8.61455 12.5705 9.59998 12.57H11.6C12.5854 12.5705 13.5487 12.8622 14.3689 13.4084ZM9.05475 4.27947C9.54562 4.08282 10.0713 3.98777 10.5999 4.00008C11.1286 3.98777 11.6543 4.08282 12.1451 4.27947C12.636 4.47613 13.0819 4.77032 13.4558 5.14424C13.8297 5.51815 14.1239 5.96403 14.3205 6.4549C14.5172 6.94577 14.6123 7.47143 14.5999 8.00008C14.6123 8.52874 14.5172 9.0544 14.3205 9.54527C14.1239 10.0361 13.8297 10.482 13.4558 10.8559C13.0819 11.2298 12.636 11.524 12.1451 11.7207C11.6543 11.9174 11.1286 12.0124 10.5999 12.0001C10.0713 12.0124 9.54562 11.9174 9.05475 11.7207C8.56388 11.524 8.11801 11.2298 7.74409 10.8559C7.37017 10.482 7.07599 10.0361 6.87933 9.54527C6.68267 9.0544 6.58762 8.52874 6.59994 8.00008C6.58762 7.47143 6.68267 6.94577 6.87933 6.4549C7.07599 5.96403 7.37017 5.51815 7.74409 5.14424C8.11801 4.77032 8.56388 4.47613 9.05475 4.27947ZM9.81961 9.87406C10.0681 9.97002 10.3339 10.0129 10.5999 10.0001C10.866 10.0129 11.1318 9.97002 11.3803 9.87406C11.6287 9.7781 11.8544 9.63123 12.0427 9.44289C12.2311 9.25454 12.378 9.02888 12.4739 8.78041C12.5699 8.53193 12.6128 8.26613 12.5999 8.00008C12.6128 7.73403 12.5699 7.46824 12.4739 7.21976C12.378 6.97128 12.2311 6.74563 12.0427 6.55728C11.8544 6.36894 11.6287 6.22207 11.3803 6.12611C11.1318 6.03015 10.866 5.98722 10.5999 6.00008C10.3339 5.98722 10.0681 6.03015 9.81961 6.12611C9.57114 6.22207 9.34548 6.36894 9.15714 6.55728C8.96879 6.74563 8.82192 6.97128 8.72596 7.21976C8.63 7.46824 8.58708 7.73403 8.59994 8.00008C8.58708 8.26613 8.63 8.53193 8.72596 8.78041C8.82192 9.02888 8.96879 9.25454 9.15714 9.44289C9.34548 9.63123 9.57114 9.7781 9.81961 9.87406Z" fill="#667C85"/>
</svg>
