<svg width="59" height="31" viewBox="0 0 59 31" fill="none" xmlns="http://www.w3.org/2000/svg">
<rect width="58.8" height="31" rx="12" fill="#2AC0D5"/>
<path d="M20.16 23.6999C20.4343 23.9903 20.7691 24.2169 21.1406 24.3637C21.5121 24.5106 21.9113 24.5742 22.31 24.5499C23.4791 24.4887 24.6245 24.1964 25.68 23.6899C27.2618 24.3988 29.0146 24.6357 30.7278 24.3724C32.4411 24.109 34.0418 23.3565 35.3377 22.2054C36.6336 21.0542 37.5694 19.5533 38.0328 17.883C38.4963 16.2128 38.4675 14.4442 37.95 12.7899C39.26 10.5599 39.7 8.52992 38.62 7.30992C38.306 6.94581 37.9076 6.66424 37.4595 6.4899C37.0115 6.31556 36.5275 6.25376 36.05 6.30992C35.1036 6.45429 34.2185 6.86731 33.5 7.49992C31.8869 6.68033 30.0642 6.36598 28.2697 6.59788C26.4753 6.82979 24.7924 7.59718 23.4407 8.79994C22.0889 10.0027 21.1311 11.585 20.6921 13.3403C20.2532 15.0956 20.3535 16.9425 20.98 18.6399C19.92 19.8499 18.93 22.3199 20.16 23.6999ZM21.66 22.3799C21.44 22.1299 21.66 21.3099 22.03 20.6199C22.4775 21.2641 23.0051 21.8488 23.6 22.3599C22.57 22.6599 21.89 22.6399 21.66 22.3799ZM36.17 17.2099C35.7161 19.0056 34.569 20.5483 32.98 21.4999C31.8963 22.1444 30.6608 22.4895 29.4 22.4999C28.9834 22.4968 28.5681 22.4533 28.16 22.3699C29.7289 21.4078 31.2081 20.3067 32.58 19.0799C33.9612 17.8603 35.2328 16.5218 36.38 15.0799C36.4215 15.7965 36.3507 16.5152 36.17 17.2099ZM36.26 8.31992C36.4203 8.29353 36.5847 8.30914 36.7372 8.36522C36.8897 8.4213 37.025 8.51595 37.13 8.63992C37.36 8.89992 37.29 9.57992 36.87 10.5699C36.419 9.88064 35.8775 9.25505 35.26 8.70992C35.5609 8.50848 35.9022 8.37536 36.26 8.31992ZM22.62 13.8099C22.8393 12.9158 23.2343 12.0743 23.7819 11.3344C24.3296 10.5944 25.019 9.97085 25.81 9.49992C26.8943 8.84832 28.1349 8.50274 29.4 8.49992C30.6114 8.49156 31.8037 8.8023 32.8569 9.4009C33.9102 9.99949 34.7873 10.8648 35.4 11.9099C35.5324 12.1212 35.6493 12.3418 35.75 12.5699C34.4639 14.4143 32.9559 16.0936 31.26 17.5699C29.5931 19.103 27.7423 20.4231 25.75 21.4999C24.4838 20.7221 23.4981 19.5615 22.9353 18.1862C22.3726 16.8109 22.2622 15.2922 22.62 13.8499V13.8099Z" fill="white"/>
</svg>
