<svg width="60" height="31" viewBox="0 0 60 31" fill="none" xmlns="http://www.w3.org/2000/svg">
<rect x="0.399994" width="58.8" height="31" rx="12" fill="#2AC0D5"/>
<path fill-rule="evenodd" clip-rule="evenodd" d="M21.8 6.5H37.8C38.903 6.5 39.8 7.397 39.8 8.5V22.5C39.8 23.603 38.903 24.5 37.8 24.5H21.8C20.697 24.5 19.8 23.603 19.8 22.5V8.5C19.8 7.397 20.697 6.5 21.8 6.5ZM21.8 8.5V22.5H37.802L37.8 8.5H21.8ZM35.8 10.5H23.8V12.5H35.8V10.5ZM35.8 14.5H23.8V16.5H35.8V14.5ZM29.8 18.5H23.8V20.5H29.8V18.5Z" fill="white"/>
</svg>
