<svg width="59" height="31" viewBox="0 0 59 31" fill="none" xmlns="http://www.w3.org/2000/svg">
<rect x="0.199982" width="58.8" height="31" rx="12" fill="#2AC0D5"/>
<path fill-rule="evenodd" clip-rule="evenodd" d="M22.5662 8.46618C24.4343 6.59807 26.9583 5.53369 29.6 5.5C32.2417 5.53369 34.7657 6.59807 36.6338 8.46618C38.5019 10.3343 39.5663 12.8583 39.6 15.5C39.5876 17.0389 39.2203 18.5542 38.5265 19.9279C37.8327 21.3016 36.8312 22.4967 35.6 23.42V23.5H35.5C33.8068 24.7975 31.7331 25.5006 29.6 25.5006C27.4668 25.5006 25.3932 24.7975 23.7 23.5H23.6V23.42C22.3688 22.4967 21.3673 21.3016 20.6735 19.9279C19.9797 18.5542 19.6123 17.0389 19.6 15.5C19.6337 12.8583 20.698 10.3343 22.5662 8.46618ZM26.7191 20.7336C26.1861 21.1629 25.816 21.7614 25.67 22.43C26.8611 23.1308 28.218 23.5004 29.6 23.5004C30.982 23.5004 32.3388 23.1308 33.53 22.43C33.384 21.7614 33.0138 21.1629 32.4809 20.7336C31.948 20.3044 31.2843 20.0702 30.6 20.07H28.6C27.9157 20.0702 27.252 20.3044 26.7191 20.7336ZM33.3689 18.9084C34.1891 19.4546 34.8296 20.2309 35.21 21.14C35.9593 20.403 36.5561 19.5255 36.9662 18.5578C37.3762 17.5901 37.5916 16.551 37.6 15.5C37.574 13.3863 36.7229 11.3665 35.2281 9.87183C33.7334 8.37712 31.7136 7.52594 29.6 7.5C27.4863 7.52594 25.4665 8.37712 23.9718 9.87183C22.4771 11.3665 21.6259 13.3863 21.6 15.5C21.6083 16.551 21.8237 17.5901 22.2338 18.5578C22.6439 19.5255 23.2406 20.403 23.99 21.14C24.3703 20.2309 25.0109 19.4546 25.8311 18.9084C26.6512 18.3622 27.6146 18.0705 28.6 18.07H30.6C31.5854 18.0705 32.5487 18.3622 33.3689 18.9084ZM28.0548 9.77947C28.5456 9.58282 29.0713 9.48777 29.5999 9.50008C30.1286 9.48777 30.6543 9.58282 31.1451 9.77947C31.636 9.97613 32.0819 10.2703 32.4558 10.6442C32.8297 11.0182 33.1239 11.464 33.3205 11.9549C33.5172 12.4458 33.6123 12.9714 33.5999 13.5001C33.6123 14.0287 33.5172 14.5544 33.3205 15.0453C33.1239 15.5361 32.8297 15.982 32.4558 16.3559C32.0819 16.7298 31.636 17.024 31.1451 17.2207C30.6543 17.4174 30.1286 17.5124 29.5999 17.5001C29.0713 17.5124 28.5456 17.4174 28.0548 17.2207C27.5639 17.024 27.118 16.7298 26.7441 16.3559C26.3702 15.982 26.076 15.5361 25.8793 15.0453C25.6827 14.5544 25.5876 14.0287 25.5999 13.5001C25.5876 12.9714 25.6827 12.4458 25.8793 11.9549C26.076 11.464 26.3702 11.0182 26.7441 10.6442C27.118 10.2703 27.5639 9.97613 28.0548 9.77947ZM28.8196 15.3741C29.0681 15.47 29.3339 15.5129 29.5999 15.5001C29.866 15.5129 30.1318 15.47 30.3803 15.3741C30.6287 15.2781 30.8544 15.1312 31.0427 14.9429C31.2311 14.7545 31.378 14.5289 31.4739 14.2804C31.5699 14.0319 31.6128 13.7661 31.5999 13.5001C31.6128 13.234 31.5699 12.9682 31.4739 12.7198C31.378 12.4713 31.2311 12.2456 31.0427 12.0573C30.8544 11.8689 30.6287 11.7221 30.3803 11.6261C30.1318 11.5301 29.866 11.4872 29.5999 11.5001C29.3339 11.4872 29.0681 11.5301 28.8196 11.6261C28.5711 11.7221 28.3455 11.8689 28.1571 12.0573C27.9688 12.2456 27.8219 12.4713 27.726 12.7198C27.63 12.9682 27.5871 13.234 27.5999 13.5001C27.5871 13.7661 27.63 14.0319 27.726 14.2804C27.8219 14.5289 27.9688 14.7545 28.1571 14.9429C28.3455 15.1312 28.5711 15.2781 28.8196 15.3741Z" fill="white"/>
</svg>
