<svg width="60" height="31" viewBox="0 0 60 31" fill="none" xmlns="http://www.w3.org/2000/svg">
<rect x="0.799988" width="58.8" height="31" rx="12" fill="#2AC0D5"/>
<path fill-rule="evenodd" clip-rule="evenodd" d="M37.907 11.793C37.9892 11.8783 38.0556 11.9775 38.103 12.086C38.1154 12.1126 38.1238 12.1399 38.1326 12.168C38.1337 12.1717 38.1348 12.1753 38.136 12.179C38.1649 12.2625 38.1821 12.3497 38.187 12.438C38.1879 12.4481 38.1907 12.4576 38.1935 12.467C38.1968 12.4779 38.2 12.4887 38.2 12.5V23.5C38.2 24.603 37.303 25.5 36.2 25.5H24.2C23.097 25.5 22.2 24.603 22.2 23.5V7.5C22.2 6.397 23.097 5.5 24.2 5.5H31.2C31.2115 5.5 31.2224 5.50329 31.2333 5.5066C31.2424 5.50934 31.2515 5.51209 31.261 5.513C31.3492 5.51837 31.4363 5.53553 31.52 5.564C31.53 5.56743 31.5399 5.57056 31.5498 5.57368C31.5717 5.58057 31.5933 5.58736 31.614 5.597C31.7225 5.64441 31.8217 5.71078 31.907 5.793L37.907 11.793ZM32.2 11.5H34.786L32.2 8.914V11.5ZM24.2 7.5V23.5H36.202L36.2 13.5H31.2C30.9348 13.5 30.6804 13.3946 30.4929 13.2071C30.3053 13.0196 30.2 12.7652 30.2 12.5V7.5H24.2ZM34.2 17.5V15.5H26.2V17.5H34.2ZM34.2 21.5V19.5H26.2V21.5H34.2ZM28.2 11.5H26.2V13.5H28.2V11.5Z" fill="white"/>
</svg>
