<svg width="106" height="40" viewBox="0 0 106 40" fill="none" xmlns="http://www.w3.org/2000/svg">
<rect width="106" height="40" rx="20" fill="white"/>
<path fill-rule="evenodd" clip-rule="evenodd" d="M29 12C29 13.1046 28.1046 14 27 14C25.8954 14 25 13.1046 25 12C25 10.8954 25.8954 10 27 10C28.1046 10 29 10.8954 29 12ZM23.2929 15.2929C23.4804 15.1054 23.7348 15 24 15H30C30.2652 15 30.5196 15.1054 30.7071 15.2929C30.8946 15.4804 31 15.7348 31 16V23H29V30H25V23H23V16C23 15.7348 23.1054 15.4804 23.2929 15.2929ZM38 14C39.1046 14 40 13.1046 40 12C40 10.8954 39.1046 10 38 10C36.8954 10 36 10.8954 36 12C36 13.1046 36.8954 14 38 14ZM40.8366 15.1916C41.018 15.324 41.1495 15.5136 41.21 15.73L43 22H41L42 26H40V30H36V26H34L35 22H33L34.71 15.73C34.7705 15.5136 34.902 15.324 35.0834 15.1916C35.2648 15.0592 35.4856 14.9917 35.71 15H40.21C40.4344 14.9917 40.6552 15.0592 40.8366 15.1916Z" fill="#33C2CF"/>
<path d="M49.864 23.736V24.856H64.12V23.736H49.864ZM50.312 15.448V16.552H63.736V15.448H50.312ZM53.576 18.168V19.192H60.44V18.168H53.576ZM53.576 20.936V21.976H60.44V20.936H53.576ZM52.808 13.592V24.232H53.992V13.592H52.808ZM59.96 13.592V24.232H61.176V13.592H59.96ZM58.168 25.976C60.04 26.664 61.944 27.544 63.08 28.216L64.168 27.432C62.92 26.76 60.888 25.88 58.984 25.208L58.168 25.976ZM54.776 25.112C53.64 25.896 51.432 26.84 49.704 27.336C49.96 27.592 50.328 28.008 50.504 28.248C52.232 27.688 54.408 26.76 55.832 25.88L54.776 25.112ZM74.888 13.592V24.712H75.976V13.592H74.888ZM69.336 20.184L69.784 21.24L79.384 17.496L78.92 16.456L69.336 20.184ZM71.384 15.176V25.912C71.384 27.688 71.944 28.136 73.848 28.136C74.28 28.136 77.624 28.136 78.072 28.136C79.832 28.136 80.216 27.416 80.424 25.192C80.088 25.128 79.608 24.92 79.32 24.728C79.192 26.6 79.032 27.048 78.04 27.048C77.336 27.048 74.424 27.048 73.864 27.048C72.728 27.048 72.52 26.84 72.52 25.928V15.176H71.384ZM69.256 13.624C68.36 16.056 66.872 18.456 65.288 20.008C65.496 20.28 65.848 20.92 65.96 21.192C67.704 19.4 69.336 16.696 70.392 13.976L69.256 13.624ZM67.56 17.752V28.264H68.712V16.632L68.68 16.616L67.56 17.752ZM78.552 16.76C78.552 19.048 78.456 22.136 78.264 23.896L79.24 24.168C79.528 22.28 79.688 19.208 79.736 16.872L79.784 16.664L78.872 16.376L78.376 16.76H78.552Z" fill="#33C2CF"/>
</svg>
