<svg width="106" height="40" viewBox="0 0 106 40" fill="none" xmlns="http://www.w3.org/2000/svg">
<path fill-rule="evenodd" clip-rule="evenodd" d="M42.9998 12C42.9998 13.1046 42.1043 14 40.9998 14C39.8952 14 38.9998 13.1046 38.9998 12C38.9998 10.8954 39.8952 10 40.9998 10C42.1043 10 42.9998 10.8954 42.9998 12ZM43.5845 15.1885C43.7547 15.3113 43.8819 15.4847 43.9478 15.684L45.9478 21.683L44.1728 22.276L44.9998 26H42.9998V30H38.9998V26H36.9998L37.8268 22.277L36.0518 21.684L38.0518 15.684C38.1178 15.4848 38.2449 15.3115 38.4151 15.1887C38.5853 15.0659 38.7899 14.9999 38.9998 15H42.9998C43.2097 14.9997 43.4143 15.0657 43.5845 15.1885Z" fill="#AAE6EE"/>
<path d="M57.944 17.4V18.68H72.104V17.4H57.944ZM68.536 15.864C67.432 22.504 64.984 25.752 57.96 27.08C58.248 27.384 58.568 27.88 58.696 28.232C65.944 26.712 68.616 23.192 69.8 16.168L68.536 15.864ZM59.832 22.696L61.304 22.824C62.488 20.568 64.152 16.68 64.984 13.592L63.704 13.4C62.872 16.408 61.176 20.36 59.832 22.696ZM59.832 22.696C64.12 24.344 68.312 26.504 70.776 28.28L71.752 27.208C69.208 25.464 64.84 23.32 60.664 21.752L59.832 22.696Z" fill="#AAE6EE"/>
<rect x="0.5" y="0.5" width="105" height="39" rx="19.5" stroke="#AAE6EE"/>
</svg>
