<svg width="106" height="40" viewBox="0 0 106 40" fill="none" xmlns="http://www.w3.org/2000/svg">
<path fill-rule="evenodd" clip-rule="evenodd" d="M43 12C43 13.1046 42.1046 14 41 14C39.8954 14 39 13.1046 39 12C39 10.8954 39.8954 10 41 10C42.1046 10 43 10.8954 43 12ZM37.2929 15.2929C37.4804 15.1054 37.7348 15 38 15H44C44.2652 15 44.5196 15.1054 44.7071 15.2929C44.8946 15.4804 45 15.7348 45 16V23H43V30H39V23H37V16C37 15.7348 37.1054 15.4804 37.2929 15.2929Z" fill="#33C2CF"/>
<path d="M60.632 18.12H69.32V19.848H60.632V18.12ZM60.632 15.448H69.32V17.144H60.632V15.448ZM59.432 14.424V20.888H70.552V14.424H59.432ZM64.328 14.888V20.392H65.544V14.888H64.328ZM58.136 22.44V23.544H70.376V22.44H58.136ZM69.88 22.44L69.864 22.616C69.624 25.464 69.336 26.68 68.92 27.016C68.776 27.16 68.584 27.176 68.216 27.176C67.848 27.176 66.792 27.16 65.752 27.08C65.96 27.384 66.104 27.848 66.136 28.184C67.16 28.232 68.152 28.248 68.648 28.216C69.224 28.184 69.576 28.104 69.928 27.768C70.44 27.272 70.76 26.008 71.048 22.968C71.08 22.792 71.096 22.44 71.096 22.44H69.88ZM64.104 20.664C63.704 23.8 62.872 26.184 57.688 27.256C57.912 27.496 58.216 27.976 58.328 28.28C63.816 27.064 64.904 24.312 65.352 20.664H64.104Z" fill="#33C2CF"/>
<rect x="0.5" y="0.5" width="105" height="39" rx="19.5" stroke="#white"/>
</svg>
