<svg width="20" height="16" viewBox="0 0 20 16" fill="none" xmlns="http://www.w3.org/2000/svg">
<path d="M10.001 9.93198C10.5569 9.93198 11.09 9.71116 11.4831 9.31808C11.8762 8.925 12.097 8.39188 12.097 7.83599C12.097 7.28009 11.8762 6.74697 11.4831 6.35389C11.09 5.96082 10.5569 5.73999 10.001 5.73999C9.44513 5.73999 8.91201 5.96082 8.51893 6.35389C8.12586 6.74697 7.90503 7.28009 7.90503 7.83599C7.90503 8.39188 8.12586 8.925 8.51893 9.31808C8.91201 9.71116 9.44513 9.93198 10.001 9.93198Z" fill="#AAE6EE"/>
<path fill-rule="evenodd" clip-rule="evenodd" d="M0 7.83599C1.33515 3.58426 5.30706 0.5 10 0.5C14.6929 0.5 18.6649 3.58426 20 7.83599C18.6649 12.0877 14.6929 15.172 10 15.172C5.30706 15.172 1.33515 12.0877 0 7.83599ZM14.192 7.83599C14.192 8.94777 13.7503 10.014 12.9642 10.8002C12.178 11.5863 11.1118 12.028 10 12.028C8.88821 12.028 7.82196 11.5863 7.03581 10.8002C6.24966 10.014 5.80801 8.94777 5.80801 7.83599C5.80801 6.7242 6.24966 5.65795 7.03581 4.8718C7.82196 4.08565 8.88821 3.644 10 3.64399C11.1118 3.644 12.178 4.08565 12.9642 4.8718C13.7503 5.65795 14.192 6.7242 14.192 7.83599Z" fill="#AAE6EE"/>
</svg>
