<svg width="21" height="21" viewBox="0 0 21 21" fill="none" xmlns="http://www.w3.org/2000/svg">
<path d="M6.073 10.694L2.212 6.83297C0.692 8.48997 0.116 10.15 0.106 10.184L0 10.5L0.105 10.816C0.127 10.883 2.421 17.5 10.054 17.5C10.983 17.5 11.829 17.398 12.606 17.227L9.86 14.481C8.87128 14.4325 7.93595 14.018 7.23598 13.318C6.53601 12.618 6.12147 11.6827 6.073 10.694ZM10.054 3.49997C8.199 3.49997 6.679 3.90397 5.412 4.49797L1.707 0.792969L0.293 2.20697L18.293 20.207L19.707 18.793L16.409 15.495C19.047 13.542 19.988 10.858 20.002 10.816L20.107 10.5L20.002 10.184C19.98 10.117 17.687 3.49997 10.054 3.49997ZM11.96 11.046C12.147 10.369 11.988 9.60697 11.468 9.08597C10.948 8.56497 10.185 8.40697 9.508 8.59397L8 7.08597C8.61796 6.70595 9.32855 6.50322 10.054 6.49997C12.26 6.49997 14.054 8.29397 14.054 10.5C14.051 11.2253 13.8479 11.9357 13.467 12.553L11.96 11.046Z" fill="#AAE6EE"/>
</svg>
